<svg width="25" height="25" viewBox="0 0 25 25" fill="none" xmlns="http://www.w3.org/2000/svg">
<path d="M22.6594 4.37344L20.1244 1.83844C18.9407 0.652781 17.3649 0 15.6882 0C14.0115 0 12.4376 0.652781 11.2519 1.83844L4.91444 8.17403L6.18194 9.44153L12.5194 3.10594C13.3663 2.25904 14.4911 1.79277 15.6882 1.79277C16.8853 1.79277 18.01 2.25904 18.8569 3.10594L21.3919 5.64094C22.2388 6.48784 22.7051 7.6126 22.7051 8.80968C22.7051 10.0068 22.2388 11.1315 21.3919 11.9784L11.8857 21.4847C10.1386 23.2318 7.29529 23.2318 5.54819 21.4847L3.0151 18.9497C2.6535 18.5862 2.35851 18.1694 2.13965 17.7126L0.521973 18.4872C0.82838 19.1286 1.24136 19.709 1.7476 20.2172L4.2826 22.7522C5.50632 23.974 7.11258 24.5868 8.71884 24.5868C10.3251 24.5868 11.9314 23.9759 13.1551 22.7522L22.6613 13.2459C23.847 12.0622 24.4998 10.4864 24.4998 8.80968C24.4979 7.13301 23.8432 5.5572 22.6594 4.37344Z" fill="#D9D9D9"/>
</svg>
